# xmcd
#
# Track frame offsets:
#	150
#	16684
#	29753
#	48222
#	70059
#	85991
#	121931
#	141881
#	163178
#	178886
#
# Disc length: 2675
#
# Revision: 2
# Processed by: cddbd v1.5.1PL0 Copyright (c) Steve Scherf et al.
# Submitted via: CDex 1.51
# Normalized: r0:DSETVAR1,TDELIM( - ),TSWAP
#
DISCID=840a710a
DTITLE=Various Artist - Hits of the 80's
DYEAR=2002
DGENRE=80's Pop
TTITLE0=Gary Numan - Cars (Live)
TTITLE1=Berlin - Take My Breathe Away (Remix)
TTITLE2=Irene Cara - Flashdance (What A Feeling)
TTITLE3=Teddy Pendergrass - Love TKO
TTITLE4=Todd Rundgren - Bang On The Drum
TTITLE5=Marvin Gaye - Sexual Healing (Live)
TTITLE6=Teddy Pendergrass - Close The Door
TTITLE7=Cinderella - Don't Know What You Got (Till It's Gone)
TTITLE8=Taylor Dayne - Prove Your Love
TTITLE9=Teddy Pendergreass - You're My Latest, My Greatest Inspiration
EXTD=YEAR: 2002
EXTT0=
EXTT1=
EXTT2=
EXTT3=
EXTT4=
EXTT5=
EXTT6=
EXTT7=
EXTT8=
EXTT9=
PLAYORDER=
